<svg width="60" height="70" viewBox="0 0 60 70" fill="none" xmlns="http://www.w3.org/2000/svg">
    <g filter="url(#filter0_dii_538_4187)">
        <path d="M50 20C50 36.0457 30 50 30 50C30 50 10 36.0457 10 20C10 8.9543 18.9543 0 30 0C41.0457 0 50 8.9543 50 20Z" fill="url(#paint0_linear_538_4187)"/>
    </g>
    <path d="M26.667 21.6667C26.667 21.6667 27.917 23.3334 30.0003 23.3334C32.0837 23.3334 33.3337 21.6667 33.3337 21.6667M27.5003 17.5001H27.5087M32.5003 17.5001H32.5087M38.3337 20.0001C38.3337 24.6025 34.6027 28.3334 30.0003 28.3334C25.398 28.3334 21.667 24.6025 21.667 20.0001C21.667 15.3977 25.398 11.6667 30.0003 11.6667C34.6027 11.6667 38.3337 15.3977 38.3337 20.0001Z" stroke="white" stroke-width="2" stroke-linecap="round" stroke-linejoin="round"/>
    <defs>
        <filter id="filter0_dii_538_4187" x="0" y="0" width="60" height="70" filterUnits="userSpaceOnUse" color-interpolation-filters="sRGB">
            <feFlood flood-opacity="0" result="BackgroundImageFix"/>
            <feColorMatrix in="SourceAlpha" type="matrix" values="0 0 0 0 0 0 0 0 0 0 0 0 0 0 0 0 0 0 127 0" result="hardAlpha"/>
            <feOffset dy="10"/>
            <feGaussianBlur stdDeviation="5"/>
            <feComposite in2="hardAlpha" operator="out"/>
            <feColorMatrix type="matrix" values="0 0 0 0 0 0 0 0 0 0.12549 0 0 0 0 0.25098 0 0 0 0.1 0"/>
            <feBlend mode="normal" in2="BackgroundImageFix" result="effect1_dropShadow_538_4187"/>
            <feBlend mode="normal" in="SourceGraphic" in2="effect1_dropShadow_538_4187" result="shape"/>
            <feColorMatrix in="SourceAlpha" type="matrix" values="0 0 0 0 0 0 0 0 0 0 0 0 0 0 0 0 0 0 127 0" result="hardAlpha"/>
            <feOffset dy="-2"/>
            <feComposite in2="hardAlpha" operator="arithmetic" k2="-1" k3="1"/>
            <feColorMatrix type="matrix" values="0 0 0 0 0 0 0 0 0 0.12549 0 0 0 0 0.25098 0 0 0 0.1 0"/>
            <feBlend mode="normal" in2="shape" result="effect2_innerShadow_538_4187"/>
            <feColorMatrix in="SourceAlpha" type="matrix" values="0 0 0 0 0 0 0 0 0 0 0 0 0 0 0 0 0 0 127 0" result="hardAlpha"/>
            <feOffset dy="2"/>
            <feComposite in2="hardAlpha" operator="arithmetic" k2="-1" k3="1"/>
            <feColorMatrix type="matrix" values="0 0 0 0 1 0 0 0 0 1 0 0 0 0 1 0 0 0 0.25 0"/>
            <feBlend mode="normal" in2="effect2_innerShadow_538_4187" result="effect3_innerShadow_538_4187"/>
        </filter>
        <linearGradient id="paint0_linear_538_4187" x1="30" y1="0" x2="30" y2="50" gradientUnits="userSpaceOnUse">
            <stop stop-color="#409FFF"/>
            <stop offset="1" stop-color="#007FFF"/>
        </linearGradient>
    </defs>
</svg>
