<svg width="440" height="200" viewBox="0 0 440 200" fill="none" xmlns="http://www.w3.org/2000/svg">
<g filter="url(#filter0_d_559_2114)">
<rect x="20" width="400" height="160" rx="20" fill="white"/>
<path d="M148.813 73.6411C150.648 73.6411 152.69 73.7048 154.461 74.9016C155.642 75.6835 157.03 77.2314 157.03 79.9918C157.03 83.0237 155.116 86.5979 149.802 86.5979H145.334V94.9115H141.425V73.6411H148.813ZM148.972 83.4864C149.834 83.4864 151.079 83.5182 152.068 82.5928C152.754 81.9706 153.121 80.9173 153.121 80.0238C153.121 79.1941 152.786 78.1888 152.1 77.5984C151.414 77.008 150.329 76.7206 149.116 76.7206H145.334V83.4864H148.972ZM160.637 80.7099C161.722 79.6886 163.334 78.795 165.743 78.795C168.168 78.795 169.78 79.6886 170.865 80.7099C172.477 82.2258 173.307 84.5874 173.307 86.997C173.307 89.4064 172.477 91.768 170.865 93.2838C169.78 94.3051 168.168 95.2146 165.743 95.2146C163.334 95.2146 161.722 94.3051 160.637 93.2838C159.025 91.768 158.196 89.4064 158.196 86.997C158.18 84.5715 159.025 82.2258 160.637 80.7099ZM163.27 91.4648C163.605 91.8637 164.387 92.6136 165.743 92.6136C167.115 92.6136 167.881 91.8797 168.216 91.4648C168.472 91.1936 169.397 89.949 169.397 86.997C169.397 84.045 168.472 82.8162 168.216 82.529C167.881 82.1301 167.099 81.3802 165.743 81.3802C164.387 81.3802 163.605 82.1141 163.27 82.529C163.03 82.8162 162.089 84.045 162.089 86.997C162.089 89.933 163.03 91.1776 163.27 91.4648ZM185.673 84.8906C185.609 84.0928 185.306 83.1514 184.891 82.561C184.508 82.0024 183.774 81.3802 182.529 81.3802C181.317 81.3802 180.519 82.0024 180.024 82.8322C179.242 84.1086 179.194 86.0874 179.194 86.997C179.194 88.449 179.402 90.1883 180.024 91.1776C180.423 91.7998 181.237 92.5978 182.529 92.5978C183.455 92.5978 184.237 92.2307 184.827 91.417C185.29 90.7627 185.609 89.8371 185.657 89.0234L188.944 89.4224C188.752 90.8744 188.114 92.5019 186.965 93.5392C186.008 94.4008 184.508 95.1827 182.402 95.1827C180.056 95.1827 178.524 94.2573 177.631 93.4115C176.418 92.2626 175.269 90.2202 175.269 86.997C175.269 83.997 176.29 82.1939 177.104 81.2365C178.253 79.8642 180.2 78.7632 182.497 78.7632C184.46 78.7632 186.072 79.4493 187.077 80.5026C188.098 81.5237 188.721 83.0715 188.944 84.4598L185.673 84.8906ZM201.055 84.8906C200.992 84.0928 200.688 83.1514 200.273 82.561C199.907 82.0024 199.156 81.3802 197.912 81.3802C196.699 81.3802 195.901 82.0024 195.407 82.8322C194.641 84.1086 194.577 86.0874 194.577 86.997C194.577 88.449 194.8 90.1883 195.407 91.1776C195.806 91.7998 196.619 92.5978 197.912 92.5978C198.837 92.5978 199.619 92.2307 200.21 91.417C200.672 90.7627 200.992 89.8371 201.039 89.0234L204.327 89.4224C204.151 90.8744 203.497 92.5019 202.348 93.5392C201.39 94.4008 199.907 95.1827 197.8 95.1827C195.439 95.1827 193.923 94.2573 193.029 93.4115C191.816 92.2626 190.668 90.2202 190.668 86.997C190.668 83.997 191.689 82.1939 192.503 81.2365C193.651 79.8642 195.598 78.7632 197.896 78.7632C199.843 78.7632 201.454 79.4493 202.476 80.5026C203.497 81.5237 204.119 83.0715 204.342 84.4598L201.055 84.8906ZM220.922 90.3158C220.364 92.1669 219.246 93.252 218.321 93.9062C217.076 94.7358 215.464 95.2146 213.757 95.2146C211.619 95.2146 209.449 94.3051 208.14 92.9806C206.928 91.752 206.034 89.5978 206.034 87.0606C206.034 83.8374 207.374 81.6992 208.826 80.4866C209.672 79.7685 211.252 78.7792 213.629 78.7792C216.645 78.7792 218.56 80.1674 219.581 81.6035C220.666 83.0875 221.176 85.1619 221.176 86.965V87.683H209.959C209.959 87.8586 209.927 89.2947 210.486 90.4435C211.316 92.1829 212.848 92.6136 213.901 92.6136C214.73 92.6136 215.784 92.3584 216.661 91.4648C217.188 90.9062 217.411 90.3797 217.491 89.8851L220.922 90.3158ZM217.268 85.3214C217.268 84.4278 217.044 83.4066 216.581 82.7205C215.991 81.8587 214.938 81.2683 213.789 81.2683C212.608 81.2683 211.587 81.8587 210.964 82.5928C210.47 83.2152 210.039 84.1725 210.039 85.3214H217.268ZM236.479 79.0982V94.9115H232.874V81.779H228.788C228.693 83.9173 228.629 84.7789 228.565 86.2469C228.469 87.8904 228.357 91.3531 226.954 93.252C226.172 94.2731 225.213 94.6722 224.528 94.8635C224.128 94.9912 223.698 95.039 223.252 95.039C222.948 95.039 222.629 95.0072 222.325 94.9115V92.1829H222.629C223.092 92.1509 223.714 91.9115 224.112 91.5925C225.357 90.603 225.469 88.3691 225.597 86.5979C225.757 84.2683 225.789 82.88 225.804 80.7738L225.836 79.0982H236.479ZM243.868 84.731H247.84C248.861 84.731 250.84 84.8587 252.149 86.1512C253.33 87.3 253.442 88.9117 253.442 89.7734C253.442 92.0392 252.516 93.1882 251.797 93.7786C251.543 93.9701 250.378 94.8955 248.144 94.8955H240.277V79.0982H243.868V84.731ZM243.868 92.2946H246.692C247.378 92.2946 248.112 92.2626 248.735 91.736C249.101 91.385 249.548 90.8106 249.548 89.8053C249.548 88.9437 249.293 88.2574 248.591 87.7947C247.968 87.3958 247.186 87.332 246.708 87.332H243.884V92.2946H243.868ZM258.676 79.0982L261.596 84.013L264.628 79.0982H267.914L263.287 86.2469L268.776 94.8955H264.564L260.973 88.9437L257.191 94.8955H253.904L259.298 86.6938L254.463 79.0982H258.676ZM271.552 80.7099C272.637 79.6886 274.25 78.795 276.658 78.795C279.084 78.795 280.696 79.6886 281.781 80.7099C283.392 82.2258 284.223 84.5874 284.223 86.997C284.223 89.4064 283.376 91.768 281.781 93.2838C280.696 94.3051 279.084 95.2146 276.658 95.2146C274.25 95.2146 272.637 94.3051 271.552 93.2838C269.941 91.768 269.111 89.4064 269.111 86.997C269.111 84.5715 269.941 82.2258 271.552 80.7099ZM274.186 91.4648C274.52 91.8637 275.303 92.6136 276.658 92.6136C278.031 92.6136 278.797 91.8797 279.148 91.4648C279.388 91.1936 280.328 89.949 280.328 86.997C280.328 84.045 279.404 82.8162 279.148 82.529C278.813 82.1301 278.031 81.3802 276.658 81.3802C275.303 81.3802 274.52 82.1141 274.186 82.529C273.93 82.8162 273.005 84.045 273.005 86.997C273.005 89.933 273.946 91.1776 274.186 91.4648ZM286.152 83.3747C286.616 81.4598 287.828 80.4067 288.69 79.8802C289.216 79.5451 290.669 78.795 293.157 78.795C294.706 78.795 296.285 79.0664 297.466 79.7206C299.205 80.6781 299.636 82.0662 299.636 83.0715C299.636 84.1566 299.109 86.231 296.413 86.5341V86.5979C297.338 86.7256 298.36 87.1245 298.983 87.7787C299.541 88.3691 299.972 89.3586 299.972 90.4117C299.972 91.9914 299.045 93.3797 297.864 94.1614C296.445 95.087 294.482 95.2146 293.031 95.2146C291.562 95.2146 289.344 95.055 287.781 93.8264C286.919 93.1403 286.104 91.9595 285.866 90.4755L289.12 89.917C289.248 90.4117 289.52 91.1616 289.887 91.5925C290.701 92.5339 291.96 92.6136 292.775 92.6136C293.589 92.6136 294.45 92.5179 295.136 92.0552C295.759 91.6243 296.063 91.0339 296.063 90.252C296.063 89.5979 295.935 89.0712 295.376 88.6085C294.658 88.0181 293.701 87.9224 292.807 87.9224H291.164V85.497H292.807C293.429 85.497 294.322 85.3693 294.818 85.1299C295.472 84.7949 295.839 84.2363 295.839 83.3269C295.839 82.8322 295.647 82.3534 295.184 81.9864C294.466 81.396 293.445 81.3642 292.919 81.3642C292.2 81.3642 291.148 81.4598 290.285 82.1939C289.919 82.4971 289.424 83.0875 289.264 84.013L286.152 83.3747ZM318.37 77.359H308.109V82.0662H312.672C314.317 82.0662 315.896 82.1939 317.508 83.3109C319.088 84.396 320.077 86.0075 320.077 88.3373C320.077 90.5074 319.263 92.119 318.242 93.1402C316.695 94.688 314.924 94.9115 313.072 94.9115H303.148V73.6411H318.37V77.359ZM308.109 91.1776H312.114C312.864 91.1776 313.551 91.1456 314.253 90.4275C314.94 89.7414 315.034 88.9755 315.034 88.3851C315.034 87.7149 314.844 87.0288 314.253 86.4384C313.551 85.7363 312.64 85.6565 311.988 85.6565H308.109V91.1776ZM322.631 83.4864C323.125 81.3482 324.512 80.263 325.359 79.7685C326.588 79.0504 328.231 78.7792 330.29 78.7792C332.89 78.7792 335.524 79.1142 336.704 81.5715C337.327 82.8482 337.263 84.2045 337.263 85.3853V91.4966C337.263 92.7733 337.437 93.9541 337.725 94.9115H333.226C333.098 94.2891 333.002 93.4594 332.986 92.4062C332.396 93.4594 330.959 95.2306 327.688 95.2306C326.236 95.2306 324.736 94.8635 323.716 94.0179C322.725 93.204 322.103 91.9115 322.103 90.4914C322.103 88.9117 322.789 87.0128 325.487 85.8958C327.226 85.1778 330.05 84.9384 331.311 84.8746L332.794 84.8109V84.4757C332.794 84.0448 332.762 83.1194 332.332 82.6088C331.741 81.9226 330.56 81.8907 330.098 81.8907C329.46 81.8907 328.677 81.9546 328.023 82.3534C327.624 82.5928 327.098 83.1034 326.906 83.9651L322.631 83.4864ZM331.407 87.4277C329.858 87.5554 328.311 87.7149 327.432 88.784C327.194 89.0872 326.938 89.5659 326.938 90.2042C326.938 90.8904 327.274 91.3531 327.624 91.5925C328.055 91.9275 328.709 92.087 329.332 92.087C330.258 92.087 331.343 91.6882 331.965 90.9382C332.061 90.8424 332.794 89.917 332.794 88.1139V87.2842L331.407 87.4277ZM345.464 79.0982V85.0182H350.458V79.0982H355.071V94.8955H350.458V88.2574H345.464V94.8955H340.853V79.0982H345.464ZM363.288 79.0982V85.1778H364.533C365.872 85.1778 366.431 84.5235 366.767 83.8056C367.421 82.4173 367.389 81.3322 367.98 80.2472C368.442 79.3854 369.064 79.1621 369.463 79.0982H373.277C372.783 79.6248 372.351 80.2472 372.064 80.8056C371.57 81.8269 371.108 83.5024 370.82 84.2205C370.453 85.2098 369.831 86.199 368.25 86.3267V86.3906C369.096 86.5182 369.959 86.949 370.612 87.9064C371.012 88.4968 371.282 89.2627 371.73 90.4755C372.16 91.7202 372.351 92.1509 372.751 93.1083C373.069 93.8264 373.245 94.2573 373.772 94.9115H369.431C368.746 94.688 368.282 94.2253 367.724 92.6136C367.293 91.385 367.229 90.9382 366.943 90.252L366.719 89.6936C366.256 88.5128 365.634 88.2734 364.676 88.2734H363.288V94.9115H358.677V79.0982H363.288Z" fill="#19502E"/>
<path d="M98.9155 118.4C80.1024 118.4 64.7998 103.114 64.7998 84.3004C64.7998 73.4977 69.7624 63.5566 78.411 57.0463L78.762 56.759V41.6001H98.3409V50.2008H98.9155C117.712 50.2008 133.015 65.5033 133.015 84.3164C133.015 103.114 117.712 118.4 98.9155 118.4Z" fill="#19502E"/>
<path d="M89.0378 84.8431L96.1386 77.87V73.1308L89.0378 80.072V84.8431ZM89.0378 67.1789L96.1386 60.1898V55.722L89.0378 62.6631V67.1789ZM89.0378 73.0191L96.1386 66.046V61.5781L89.0378 68.5192V73.0191ZM87.0114 55.7698L86.0699 54.8603V43.8022H84.985V53.8072L84.0594 52.8817V43.8022H82.9744V51.8445L82.033 50.919V43.8022H80.9639V54.3497L88.0805 61.3228V43.8022H87.0114V55.7698ZM89.0378 78.8592L96.1386 71.8861V67.4183L89.0378 74.3594V78.8592ZM80.9639 77.87L88.0805 84.8431V80.072L80.9639 73.1308V77.87ZM95.0695 50.919L94.128 51.8445V43.8022H93.0589V52.8976L92.1175 53.8072V43.8022H91.0483V54.8443L90.1069 55.7698V43.8022H89.0378V61.3228L96.1386 54.3497V43.8022H95.0695V50.919ZM80.9639 60.1898L88.0805 67.1789V62.6631L80.9639 55.722V60.1898ZM80.9639 66.046L88.0805 73.0191V68.5192L80.9639 61.5781V66.046ZM80.9639 71.8861L88.0805 78.8592V74.3594L80.9639 67.4183V71.8861ZM123.297 75.5722H106.016C106.383 74.9978 106.59 74.3276 106.59 73.6095C106.59 71.5511 104.915 69.8916 102.857 69.8916C100.798 69.8916 99.1386 71.5671 99.1386 73.6095C99.1386 74.4234 99.3939 75.1573 99.8407 75.7637C99.5216 75.9711 99.2981 76.3381 99.2981 76.769C99.2981 77.1839 99.5216 77.5509 99.8407 77.7583C99.4099 78.3647 99.1386 79.1146 99.1386 79.9125C99.1386 81.9709 100.798 83.6304 102.857 83.6304C104.915 83.6304 106.59 81.9709 106.59 79.9125C106.59 79.1944 106.383 78.5082 106.016 77.9498H118.877V78.7317H117.601V79.8327H118.877V80.9656H117.601V83.0559H118.877V82.1144H120.76V83.0559H122.021V80.9656H120.76V79.8327H122.021V78.7317H120.76V77.9498H123.297C123.792 77.9498 124.191 77.5349 124.191 77.0402V76.4818C124.191 75.9871 123.776 75.5722 123.297 75.5722ZM104.787 79.9125C104.787 80.9656 103.926 81.8272 102.857 81.8272C101.803 81.8272 100.942 80.9656 100.942 79.9125C100.942 79.5295 101.053 79.1624 101.261 78.8592L101.787 77.9498C101.452 77.6626 101.245 77.2317 101.245 76.753C101.245 76.2743 101.452 75.8436 101.787 75.5562L101.261 74.6468C101.053 74.3436 100.942 73.9925 100.942 73.5936C100.942 72.5404 101.803 71.6788 102.857 71.6788C103.91 71.6788 104.787 72.5404 104.787 73.5936C104.787 74.3754 103.878 76.2424 103.878 76.2424V77.2477C103.878 77.2637 104.787 79.1306 104.787 79.9125Z" fill="#FFCB05"/>
<path d="M74.502 73.3062V77.9497C74.502 82.3857 76.4327 85.2418 77.5497 86.343C78.2039 86.9812 84.81 93.4916 84.9058 93.5713C86.9642 95.5818 87.3153 96.2361 87.778 97.385V92.247C87.778 87.6673 85.4642 85.8961 84.2674 84.7313C81.4751 82.0186 79.6241 80.2314 78.1082 78.7314C75.2679 75.8753 74.502 73.3062 74.502 73.3062ZM84.2676 96.2042C81.4911 93.4756 79.6241 91.7044 78.1242 90.2044C75.2679 87.3482 74.518 85.4174 74.518 85.4174V89.4225C74.518 93.8585 76.5285 96.683 77.5498 97.8478C78.2039 98.486 84.826 104.964 84.9058 105.044C86.9642 107.055 87.3153 108.012 87.778 109.145V103.72C87.778 99.1402 85.4484 97.369 84.2676 96.2042Z" fill="white"/>
<path d="M98.9155 52.3867C98.405 52.3867 97.8942 52.4027 97.3837 52.4186V54.5888C97.8942 54.5568 98.389 54.5568 98.9155 54.5568C115.335 54.5568 128.643 67.8648 128.643 84.3003C128.643 100.72 115.335 114.028 98.9155 114.028C82.496 114.028 69.1721 100.72 69.1721 84.3003C69.1721 75.1889 73.273 67.035 79.7355 61.5779V58.8014C71.9964 64.6256 67.002 73.8804 67.002 84.3003C67.002 101.917 81.2832 116.198 98.9155 116.198C116.532 116.198 130.813 101.917 130.813 84.3003C130.813 66.684 116.532 52.3867 98.9155 52.3867Z" fill="white"/>
<path d="M121.479 100.959C121.973 100.289 122.436 99.5867 122.883 98.8687V94.5923H121.479V100.959ZM125.563 93.0285C125.771 92.4063 125.946 91.784 126.106 91.1616H121.479V92.2946H122.181C123.409 92.2626 124.798 92.2467 125.563 93.0285Z" fill="white"/>
<path d="M94.7509 91.002H93.4902V103.719H94.7509V91.002Z" fill="white"/>
<path d="M90.6024 88.5608H94.7511C95.8202 88.5608 96.5703 88.7841 97.001 89.199C97.4319 89.6139 97.6394 90.364 97.6394 91.4331V103.321C97.6394 104.39 97.4319 105.14 97.001 105.555C96.3468 106.209 95.1341 106.209 94.1288 106.209C93.9055 106.193 93.6821 106.193 93.4906 106.193V111.826C93.9055 111.906 94.3204 111.985 94.7511 112.049V107.422C96.666 107.422 97.9106 106.767 98.501 105.459V112.352H98.9159C99.1712 112.352 99.4424 112.352 99.6978 112.336V91.6405C99.6978 90.5395 99.9212 89.7736 100.336 89.3427C100.751 88.9118 101.501 88.6885 102.554 88.6885C103.623 88.6885 105.203 88.5289 106.017 89.3427C106.432 89.7736 106.623 90.5553 106.623 91.6405V97.736H103.783V91.2256H102.554V112.113C102.969 112.065 103.368 112.001 103.783 111.922V98.9646H106.623V111.267C107.213 111.108 107.788 110.916 108.362 110.709V99.4433C108.362 98.1669 108.665 97.2094 109.958 96.7785L108.522 88.9438H111.394L111.873 97.4966H112.224L112.703 88.9438H115.734L114.107 96.7785C115.463 97.2572 115.734 98.087 115.734 99.4433V106.72C116.58 106.081 117.378 105.411 118.144 104.677V88.864H126.569C126.633 88.4811 126.681 88.1141 126.729 87.7152H107.038L107.309 89.1352C106.687 87.9864 105.506 87.412 103.767 87.412H102.538C100.448 87.412 99.1871 88.2417 98.6925 89.9013C98.2456 88.1619 96.9213 87.3003 94.7352 87.3003H89.3418V110.645C89.7567 110.789 90.1716 110.932 90.5864 111.06V88.5608H90.6024ZM116.756 97.5445L115.399 96.252L116.756 89.231V97.5445Z" fill="white"/>
<path d="M111.41 109.416C111.841 109.193 112.272 108.97 112.703 108.73V99.1084H111.41V109.416Z" fill="white"/>
</g>
<defs>
<filter id="filter0_d_559_2114" x="0" y="0" width="440" height="200" filterUnits="userSpaceOnUse" color-interpolation-filters="sRGB">
<feFlood flood-opacity="0" result="BackgroundImageFix"/>
<feColorMatrix in="SourceAlpha" type="matrix" values="0 0 0 0 0 0 0 0 0 0 0 0 0 0 0 0 0 0 127 0" result="hardAlpha"/>
<feOffset dy="20"/>
<feGaussianBlur stdDeviation="10"/>
<feComposite in2="hardAlpha" operator="out"/>
<feColorMatrix type="matrix" values="0 0 0 0 0 0 0 0 0 0.247059 0 0 0 0 0.501961 0 0 0 0.05 0"/>
<feBlend mode="normal" in2="BackgroundImageFix" result="effect1_dropShadow_559_2114"/>
<feBlend mode="normal" in="SourceGraphic" in2="effect1_dropShadow_559_2114" result="shape"/>
</filter>
</defs>
</svg>
