<svg width="440" height="200" viewBox="0 0 440 200" fill="none" xmlns="http://www.w3.org/2000/svg">
<g filter="url(#filter0_d_559_2103)">
<rect x="20" width="400" height="160" rx="20" fill="white"/>
<path d="M204.8 71.2007L210.88 66.7207H190.72V93.2807H210.88V88.8007H196.48V82.0807H208.64V77.6007H196.48V71.2007H204.8ZM179.68 71.2007L185.76 66.7207H162.72V93.2807H174.72C181.44 93.2807 185.28 90.2407 185.28 84.9607C185.28 79.8407 181.76 77.1207 175.36 77.1207H168.32V71.2007H179.68ZM174.56 81.4407C178.24 81.4407 179.84 82.7207 179.84 85.1207C179.84 87.5207 178.08 88.8007 174.56 88.8007H168.48V81.4407H174.56ZM227.04 66.7207H216.16V93.2807H221.92V85.7607H227.2C234.24 85.7607 238.56 82.0807 238.56 76.1607C238.56 70.2407 234.08 66.7207 227.04 66.7207ZM227.04 81.2807H221.92V71.0407H227.04C230.72 71.0407 232.8 72.8007 232.8 76.1607C232.64 79.5207 230.72 81.2807 227.04 81.2807ZM152.96 87.5207C151.36 88.3207 149.76 88.8007 148 88.8007C142.88 88.8007 139.04 85.1207 139.04 80.0007C139.04 74.8807 142.72 71.2007 148 71.2007C149.92 71.2007 151.68 71.8407 153.28 72.8007L157.44 69.7607L157.12 69.4407C154.72 67.3607 151.52 66.2407 147.84 66.2407C143.84 66.2407 140.32 67.5207 137.6 70.0807C135.04 72.6407 133.44 76.1607 133.6 79.8407C133.6 83.5207 135.04 87.0407 137.6 89.7607C140.32 92.3207 144 93.7607 147.68 93.6007C151.84 93.6007 155.36 92.1607 157.92 89.6007L154.24 86.8807L152.96 87.5207ZM325.6 77.6007H313.28V66.7207H307.52V93.2807H313.28V82.4007H325.6V93.2807H331.36V66.7207H325.6V77.6007ZM286.72 66.7207L275.2 93.2807H280.96L283.2 88.0007H295.36L297.6 93.2807H303.68L292.48 66.7207H286.72ZM285.12 83.5207L289.6 72.8007L293.76 83.5207H285.12ZM352.16 79.5207L362.56 66.7207H356L347.36 78.0807H344.16V66.7207H338.4V93.2807H344.16V82.5607H347.84L356.64 93.2807H364L352.16 79.5207ZM263.2 77.1207H256.16V71.2007H271.2V66.7207H250.4V93.2807H262.4C269.12 93.2807 272.96 90.2407 272.96 84.9607C273.12 79.8407 269.6 77.1207 263.2 77.1207ZM262.24 88.9607H256.16V81.6007H262.24C265.92 81.6007 267.52 82.8807 267.52 85.2807C267.68 87.6807 265.76 88.9607 262.24 88.9607Z" fill="#21A038"/>
<path d="M115.169 66.21C116.208 67.571 117.087 69.0496 117.789 70.6161L97.8712 85.4966L89.5469 80.2081V73.8459L97.8712 79.1343L115.169 66.21Z" fill="#21A038"/>
<path d="M81.0517 79.7593C81.0517 79.4738 81.0585 79.1902 81.0723 78.9082L76.0275 78.6577C76.0103 79.0231 76 79.3921 76 79.7644C75.9979 82.6738 76.5625 85.5549 77.6616 88.2425C78.7607 90.9302 80.3725 93.3714 82.4047 95.4262L85.9831 91.8014C84.4188 90.2225 83.1779 88.3457 82.3316 86.2791C81.4852 84.2125 81.0503 81.9967 81.0517 79.7593Z" fill="url(#paint0_linear_559_2103)"/>
<path d="M97.8667 62.7187C98.1483 62.7187 98.4281 62.7292 98.7063 62.7431L98.9587 57.6287C98.597 57.6113 98.233 57.6026 97.8667 57.6026C94.9946 57.599 92.1503 58.1704 89.4968 59.284C86.8433 60.3976 84.433 62.0315 82.4043 64.0917L85.9827 67.7183C87.5408 66.1324 89.3928 64.8743 91.4323 64.0163C93.4718 63.1583 95.6584 62.7173 97.8667 62.7187Z" fill="url(#paint1_linear_559_2103)"/>
<path d="M97.8672 96.8015C97.5856 96.8015 97.3057 96.8015 97.0259 96.7789L96.7734 101.892C97.1363 101.91 97.5009 101.919 97.8672 101.919C100.738 101.922 103.581 101.351 106.233 100.237C108.885 99.1228 111.294 97.4887 113.321 95.4285L109.75 91.8037C108.191 93.3887 106.339 94.6462 104.3 95.5038C102.261 96.3615 100.075 96.8026 97.8672 96.8015Z" fill="url(#paint2_linear_559_2103)"/>
<path d="M107.346 65.692L111.597 62.5162C107.711 59.3272 102.861 57.5912 97.8604 57.6001V62.718C101.246 62.7138 104.554 63.7508 107.346 65.692Z" fill="url(#paint3_linear_559_2103)"/>
<path d="M119.733 79.7602C119.736 78.4288 119.621 77.0997 119.389 75.7891L114.683 79.3042C114.683 79.4557 114.683 79.6071 114.683 79.7602C114.684 82.1413 114.192 84.4961 113.237 86.6719C112.283 88.8477 110.888 90.796 109.144 92.3905L112.538 96.1929C114.807 94.1175 116.619 91.5822 117.859 88.7515C119.098 85.9205 119.737 82.8572 119.733 79.7602Z" fill="#21A038"/>
<path d="M97.8668 96.8019C95.5172 96.8027 93.1935 96.3034 91.0463 95.3363C88.8992 94.3693 86.9764 92.9559 85.4024 91.188L81.6523 94.6266C83.6999 96.9259 86.2014 98.7632 88.9947 100.02C91.788 101.276 94.8107 101.923 97.8668 101.92V96.8019Z" fill="url(#paint4_linear_559_2103)"/>
<path d="M86.591 67.129L83.198 63.3267C80.929 65.4016 79.1157 67.9368 77.8757 70.7677C76.6357 73.5985 75.9966 76.662 76 79.7593H81.0517C81.0506 77.3783 81.5432 75.0235 82.4974 72.8477C83.4517 70.672 84.8463 68.7237 86.591 67.129Z" fill="url(#paint5_linear_559_2103)"/>
</g>
<defs>
<filter id="filter0_d_559_2103" x="0" y="0" width="440" height="200" filterUnits="userSpaceOnUse" color-interpolation-filters="sRGB">
<feFlood flood-opacity="0" result="BackgroundImageFix"/>
<feColorMatrix in="SourceAlpha" type="matrix" values="0 0 0 0 0 0 0 0 0 0 0 0 0 0 0 0 0 0 127 0" result="hardAlpha"/>
<feOffset dy="20"/>
<feGaussianBlur stdDeviation="10"/>
<feComposite in2="hardAlpha" operator="out"/>
<feColorMatrix type="matrix" values="0 0 0 0 0 0 0 0 0 0.247059 0 0 0 0 0.501961 0 0 0 0.05 0"/>
<feBlend mode="normal" in2="BackgroundImageFix" result="effect1_dropShadow_559_2103"/>
<feBlend mode="normal" in="SourceGraphic" in2="effect1_dropShadow_559_2103" result="shape"/>
</filter>
<linearGradient id="paint0_linear_559_2103" x1="83.4264" y1="94.7876" x2="77.7745" y2="78.6661" gradientUnits="userSpaceOnUse">
<stop offset="0.14" stop-color="#F1E813"/>
<stop offset="0.3" stop-color="#E6E418"/>
<stop offset="0.58" stop-color="#C9DA26"/>
<stop offset="0.89" stop-color="#A2CC39"/>
</linearGradient>
<linearGradient id="paint1_linear_559_2103" x1="83.8466" y1="64.9966" x2="98.1101" y2="59.6332" gradientUnits="userSpaceOnUse">
<stop offset="0.06" stop-color="#0FA7DF"/>
<stop offset="0.54" stop-color="#0098F8"/>
<stop offset="0.92" stop-color="#0290EA"/>
</linearGradient>
<linearGradient id="paint2_linear_559_2103" x1="96.4404" y1="98.8305" x2="112.536" y2="95.2426" gradientUnits="userSpaceOnUse">
<stop offset="0.12" stop-color="#A2CC39"/>
<stop offset="0.28" stop-color="#86C239"/>
<stop offset="0.87" stop-color="#219F38"/>
</linearGradient>
<linearGradient id="paint3_linear_559_2103" x1="96.8096" y1="59.3142" x2="110.585" y2="63.5087" gradientUnits="userSpaceOnUse">
<stop offset="0.06" stop-color="#0290EA"/>
<stop offset="0.79" stop-color="#0C89CA"/>
</linearGradient>
<linearGradient id="paint4_linear_559_2103" x1="82.9195" y1="94.0036" x2="97.9274" y2="99.5381" gradientUnits="userSpaceOnUse">
<stop offset="0.13" stop-color="#F1E813"/>
<stop offset="0.3" stop-color="#EAE616"/>
<stop offset="0.53" stop-color="#D8DF1F"/>
<stop offset="0.8" stop-color="#BAD52D"/>
<stop offset="0.98" stop-color="#A2CC39"/>
</linearGradient>
<linearGradient id="paint5_linear_559_2103" x1="77.8819" y1="80.3788" x2="84.0279" y2="64.6033" gradientUnits="userSpaceOnUse">
<stop offset="0.07" stop-color="#A2CC39"/>
<stop offset="0.26" stop-color="#81C45E"/>
<stop offset="0.92" stop-color="#0FA7DF"/>
</linearGradient>
</defs>
</svg>
