<svg width="440" height="200" viewBox="0 0 440 200" fill="none" xmlns="http://www.w3.org/2000/svg">
    <g filter="url(#filter0_d_538_2419)">
        <rect x="20" width="400" height="160" rx="20" fill="white"/>
        <g clip-path="url(#clip0_538_2419)">
            <path d="M90.0246 65.3999V75.2003H86.1651C81.2896 75.2003 77.3613 79.0672 77.3613 83.8679C77.3613 88.6668 81.2896 92.5337 86.1633 92.5337H90.0246V102.334C98.8266 100.668 105.397 93.0675 105.397 83.8661C105.397 74.7334 98.8284 67.1334 90.0246 65.3999" fill="#003791"/>
            <path d="M86.1652 95.599C79.5963 95.599 74.2444 90.3333 74.2444 83.8679C74.2444 77.4025 79.5945 72.135 86.1616 72.135H86.9077V65H86.1634C75.601 65 67 73.4668 67 83.8661C67 94.3342 75.601 102.801 86.1652 102.801H86.9095V95.6027H86.1652V95.599Z" fill="#FF4B5F"/>
            <path d="M132.484 90.4676C130.933 91.7218 128.996 92.4042 127 92.4002C122.192 92.4002 118.332 88.6002 118.332 83.8665C118.332 79.1346 122.19 75.3346 127 75.3346C129.093 75.3256 131.117 76.0841 132.687 77.4662L135.735 74.4678C133.339 72.312 130.225 71.1234 127 71.1329C119.821 71.1329 114.065 76.8672 114.065 83.8665C114.065 90.8675 119.821 96.6671 127 96.6671C130.318 96.6671 133.298 95.4673 135.533 93.4678L132.484 90.4676ZM270.295 72.1335L260.747 83.4666L251.13 72.1335L251.063 72.2674V72.1335H247.202V95.6012H251.063V78.3999L260.747 89.733L270.295 78.6677V95.6012H274.088V72.1335H270.295ZM164.449 83.8665C164.449 90.9345 158.624 96.6001 151.514 96.6001C144.336 96.6001 138.581 90.8675 138.581 83.8665C138.581 76.8672 144.403 71.1329 151.514 71.1329C158.624 71.1329 164.449 76.8672 164.449 83.8665V83.8665ZM160.115 83.8665C160.115 79.1346 156.255 75.3346 151.447 75.3346C146.638 75.3346 142.779 79.1346 142.779 83.8665C142.779 88.6002 146.638 92.4002 151.447 92.4002C156.255 92.4002 160.115 88.6002 160.115 83.8665ZM243.276 83.8665C243.276 90.9345 237.451 96.6001 230.341 96.6001C223.161 96.6001 217.406 90.8675 217.406 83.8665C217.406 76.8672 223.23 71.1329 230.341 71.1329C237.518 71.1329 243.276 76.8672 243.276 83.8665V83.8665ZM239.009 83.8665C239.009 79.1346 235.149 75.3346 230.341 75.3346C225.532 75.3346 221.673 79.1346 221.673 83.8665C221.673 88.6002 225.532 92.4002 230.341 92.4002C235.08 92.4002 239.009 88.6002 239.009 83.8665ZM217.339 72.1335H212.123L202.305 82.0009H198.309V72.1335H194.517V95.6012H198.309V85.8009H202.236L212.056 95.6012H217.203L205.556 83.9334L217.339 72.1335Z" fill="#003791"/>
            <path d="M377.968 72.1338H372.824L362.935 82.0011H358.94V72.1338H355.148V95.6015H358.94V85.8011H362.935L372.686 95.6015H377.834L366.253 83.9337L377.968 72.1338ZM321.896 95.5997H326.097L315.598 72.1338H311.264L300.769 95.6015H304.967L307.269 90.5348H319.596L321.896 95.6015V95.5997ZM308.964 86.8L313.432 76.9345L317.902 86.8H308.963H308.964Z" fill="#003791"/>
            <path d="M189.641 88.8013C189.641 87.8737 189.449 86.9562 189.076 86.1068C188.702 85.2574 188.157 84.4946 187.473 83.8668C188.759 82.6001 189.641 80.8666 189.641 78.934C189.636 77.1263 188.912 75.3948 187.629 74.1197C186.347 72.8447 184.61 72.1304 182.801 72.1338H168.852V95.6667H182.801C186.593 95.6015 189.641 92.5344 189.641 88.8013V88.8013ZM172.711 75.9356H182.734C184.427 75.9356 185.78 77.2674 185.78 78.934C185.78 80.6006 184.427 81.9342 182.734 81.9342H172.711V75.9338V75.9356ZM182.734 91.8667H172.711V85.8011H182.801C184.494 85.8011 185.849 87.1999 185.849 88.8013C185.78 90.4661 184.427 91.8667 182.734 91.8667V91.8667Z" fill="#003791"/>
            <path d="M346.547 72.2007V82.0011H332.664V72.2007H328.805V95.5346H332.664V85.7993H346.547V95.5346H350.408V72.2007H346.547ZM299.414 88.8013C299.414 85.0665 296.299 82.0011 292.507 82.0011H282.484V75.9338H297.112V72.1338H278.625V95.6666H292.507C296.299 95.6015 299.414 92.5344 299.414 88.8013V88.8013ZM292.507 91.8666H282.484V85.8011H292.507C294.2 85.8011 295.555 87.1999 295.555 88.8013C295.555 90.4661 294.2 91.8666 292.507 91.8666Z" fill="#003791"/>
        </g>
    </g>
    <defs>
        <filter id="filter0_d_538_2419" x="0" y="0" width="440" height="200" filterUnits="userSpaceOnUse" color-interpolation-filters="sRGB">
            <feFlood flood-opacity="0" result="BackgroundImageFix"/>
            <feColorMatrix in="SourceAlpha" type="matrix" values="0 0 0 0 0 0 0 0 0 0 0 0 0 0 0 0 0 0 127 0" result="hardAlpha"/>
            <feOffset dy="20"/>
            <feGaussianBlur stdDeviation="10"/>
            <feComposite in2="hardAlpha" operator="out"/>
            <feColorMatrix type="matrix" values="0 0 0 0 0 0 0 0 0 0.247059 0 0 0 0 0.501961 0 0 0 0.05 0"/>
            <feBlend mode="normal" in2="BackgroundImageFix" result="effect1_dropShadow_538_2419"/>
            <feBlend mode="normal" in="SourceGraphic" in2="effect1_dropShadow_538_2419" result="shape"/>
        </filter>
        <clipPath id="clip0_538_2419">
            <rect width="320" height="80" fill="white" transform="translate(60 40)"/>
        </clipPath>
    </defs>
</svg>
