
<svg width="440" height="200" viewBox="0 0 440 200" fill="none" xmlns="http://www.w3.org/2000/svg">
<g filter="url(#filter0_d_559_2099)">
<rect x="20" width="400" height="160" rx="20" fill="white"/>
<path d="M186.4 55.568H148.24L151.008 48H189.12L186.4 55.568ZM185.04 59.328H146.88L144.128 66.88H182.24L185.04 59.328V59.328ZM180.912 70.608H142.768L140 78.16H178.08L180.912 70.608V70.608Z" fill="#009FDF"/>
<path d="M277.168 97.0398H284C284.976 97.1627 285.968 97.0398 286.885 96.682C287.8 96.3244 288.613 95.7435 289.248 94.9918C290.201 93.7612 290.673 92.2254 290.576 90.6718C290.633 89.6825 290.448 88.694 290.035 87.7931C289.622 86.8921 288.995 86.1062 288.208 85.5038C286.929 84.671 285.409 84.2881 283.888 84.4158H277.088V97.0238L277.168 97.0398V97.0398ZM268.16 104.64V59.3278H297.648L295.04 66.9278H277.168V76.9598H284.448C290.336 76.9598 293.376 78.3678 295.488 80.1598C296.997 81.5022 298.182 83.1675 298.958 85.0318C299.734 86.8963 300.08 88.9116 299.968 90.9278C300.078 93.09 299.649 95.2457 298.718 97.2009C297.789 99.156 296.387 100.849 294.64 102.128C291.792 104.096 288.832 104.656 282.8 104.656L268.16 104.64V104.64ZM242.032 104.64V66.9278H228.912V59.3278H265.312L262.704 66.9278H251.104V104.688H242.016L242.032 104.64ZM205.712 77.4398H210.88C211.952 77.5292 213.033 77.4483 214.08 77.1998C215.152 76.8532 216.076 76.154 216.701 75.2156C217.325 74.2772 217.614 73.1551 217.52 72.0318C217.667 70.9156 217.397 69.7846 216.762 68.8547C216.128 67.9249 215.173 67.2617 214.08 66.9918C212.954 66.7251 211.796 66.6174 210.64 66.6718H205.84V77.4398H205.712V77.4398ZM205.712 85.2798V97.1678H212C213.711 97.3547 215.428 96.8795 216.8 95.8398C217.444 95.2566 217.952 94.5382 218.286 93.7361C218.621 92.934 218.774 92.0679 218.736 91.1998C218.769 89.8078 218.348 88.4427 217.536 87.3118C216.208 85.5838 214.528 85.2638 211.728 85.2638H205.728L205.712 85.2798V85.2798ZM220.24 80.4798V80.6398C221.784 81.2663 223.219 82.1302 224.496 83.1998C225.792 84.2719 226.814 85.6355 227.481 87.1788C228.149 88.7222 228.441 90.4017 228.336 92.0798C228.336 98.2878 225.056 102.768 219.648 104.08C217.488 104.614 215.262 104.829 213.04 104.72H196.72V59.3278H211.248C213.559 59.2411 215.872 59.4561 218.128 59.9678C223.376 61.3758 226.816 65.0078 226.816 70.7358C226.861 72.0937 226.627 73.4465 226.133 74.7119C225.637 75.9772 224.889 77.1284 223.936 78.0958C222.92 79.1275 221.707 79.9438 220.368 80.4958H220.24V80.4798V80.4798Z" fill="#0A2973"/>
</g>
<defs>
<filter id="filter0_d_559_2099" x="0" y="0" width="440" height="200" filterUnits="userSpaceOnUse" color-interpolation-filters="sRGB">
<feFlood flood-opacity="0" result="BackgroundImageFix"/>
<feColorMatrix in="SourceAlpha" type="matrix" values="0 0 0 0 0 0 0 0 0 0 0 0 0 0 0 0 0 0 127 0" result="hardAlpha"/>
<feOffset dy="20"/>
<feGaussianBlur stdDeviation="10"/>
<feComposite in2="hardAlpha" operator="out"/>
<feColorMatrix type="matrix" values="0 0 0 0 0 0 0 0 0 0.247059 0 0 0 0 0.501961 0 0 0 0.05 0"/>
<feBlend mode="normal" in2="BackgroundImageFix" result="effect1_dropShadow_559_2099"/>
<feBlend mode="normal" in="SourceGraphic" in2="effect1_dropShadow_559_2099" result="shape"/>
</filter>
</defs>
</svg>
