<svg width="54" height="58" viewBox="0 0 54 58" fill="none" xmlns="http://www.w3.org/2000/svg">
    <path d="M12.333 55.6667H45.6663M22.333 55.6667C40.6663 47.3334 24.9997 34.3334 32.333 22.3334M32.333 22.3334C32.1799 17.6205 33.4583 12.9719 35.9997 9.00004C38.9997 5.66671 43.333 2.66671 52.333 2.33337C51.9997 10 49.9997 14.3334 46.6663 17.6667C43.333 20.3334 38.6663 22 32.333 22.3334ZM20.6663 20.3333C24.333 23 26.6663 27.6667 28.333 32.6667C21.6663 34 16.6663 34 12.333 31.6667C8.33301 29.6667 4.66634 25.3333 2.33301 17.6666C11.6663 16 16.9997 17.6666 20.6663 20.3333Z" stroke="white" stroke-width="3" stroke-linejoin="round"/>
</svg>
